<svg width="26" height="18" viewBox="0 0 26 18" fill="none" xmlns="http://www.w3.org/2000/svg">
<path d="M0 0.000279188H0.535714V0.535993H0V0.000279188ZM0.535714 0.000279188H1.07143V0.535993H0.535714V0.000279188ZM0.535714 0.535993H1.07143V1.07171H0.535714V0.535993ZM0.535714 1.07171H1.07143V1.60742H0.535714V1.07171ZM0.535714 1.60742H1.07143V2.14314H0.535714V1.60742ZM0 1.60742H0.535714V2.14314H0V1.60742ZM0 1.07171H0.535714V1.60742H0V1.07171ZM0 0.535993H0.535714V1.07171H0V0.535993ZM0 2.14314H0.535714V2.67885H0V2.14314ZM0 2.67885H0.535714V3.21456H0V2.67885ZM0 3.21456H0.535714V3.75028H0V3.21456ZM0.535714 2.67885H1.07143V3.21456H0.535714V2.67885ZM0.535714 2.14314H1.07143V2.67885H0.535714V2.14314ZM0.535714 3.21456H1.07143V3.75028H0.535714V3.21456ZM0.535714 3.75028H1.07143V4.28599H0.535714V3.75028ZM0 4.28599H0.535714V4.82171H0V4.28599ZM0 3.75028H0.535714V4.28599H0V3.75028ZM0 4.82171H0.535714V5.35742H0V4.82171ZM0.535714 4.82171H1.07143V5.35742H0.535714V4.82171ZM0.535714 4.28599H1.07143V4.82171H0.535714V4.28599ZM1.07143 4.82171H1.60714V5.35742H1.07143V4.82171ZM1.60714 4.82171H2.14286V5.35742H1.60714V4.82171ZM2.14286 4.82171H2.67857V5.35742H2.14286V4.82171ZM2.14286 4.28599H2.67857V4.82171H2.14286V4.28599ZM1.60714 4.28599H2.14286V4.82171H1.60714V4.28599ZM1.07143 4.28599H1.60714V4.82171H1.07143V4.28599ZM6.42718 5.35742H5.89146V4.82171H6.42718V5.35742ZM6.42718 4.82171H5.89146V4.28599H6.42718V4.82171ZM5.89146 4.82171H5.35575V4.28599H5.89146V4.82171ZM5.35575 5.35742H4.82003V4.82171H5.35575V5.35742ZM4.82003 5.35742H4.28432V4.82171H4.82003V5.35742ZM4.28432 5.35742H3.7486V4.82171H4.28432V5.35742ZM4.28432 4.82171H3.7486V4.28599H4.28432V4.82171ZM4.82003 4.82171H4.28432V4.28599H4.82003V4.82171ZM3.7486 4.82171H3.21289V4.28599H3.7486V4.82171ZM3.7486 4.28599H3.21289V3.75028H3.7486V4.28599ZM3.7486 2.14314H3.21289V1.60742H3.7486V2.14314ZM4.28432 2.14314H3.7486V1.60742H4.28432V2.14314ZM4.28432 4.28599H3.7486V3.75028H4.28432V4.28599ZM4.82003 2.14314H4.28432V1.60742H4.82003V2.14314ZM4.28432 1.60742H3.7486V1.07171H4.28432V1.60742ZM4.82003 1.60742H4.28432V1.07171H4.82003V1.60742ZM5.35575 1.60742H4.82003V1.07171H5.35575V1.60742ZM5.89146 1.60742H5.35575V1.07171H5.89146V1.60742ZM6.42718 1.60742H5.89146V1.07171H6.42718V1.60742ZM6.42718 2.14314H5.89146V1.60742H6.42718V2.14314ZM5.89146 2.14314H5.35575V1.60742H5.89146V2.14314ZM6.42718 2.67885H5.89146V2.14314H6.42718V2.67885ZM6.96289 2.14314H6.42718V1.60742H6.96289V2.14314ZM6.96289 2.67885H6.42718V2.14314H6.96289V2.67885ZM6.96289 3.21456H6.42718V2.67885H6.96289V3.21456ZM6.96289 3.75028H6.42718V3.21456H6.96289V3.75028ZM6.96289 4.28599H6.42718V3.75028H6.96289V4.28599ZM6.96289 4.82171H6.42718V4.28599H6.96289V4.82171ZM6.42718 4.28599H5.89146V3.75028H6.42718V4.28599ZM6.42718 3.75028H5.89146V3.21456H6.42718V3.75028ZM6.42718 3.21456H5.89146V2.67885H6.42718V3.21456ZM5.35575 2.14314H4.82003V1.60742H5.35575V2.14314ZM5.35575 4.82171H4.82003V4.28599H5.35575V4.82171ZM6.42718 4.82171H6.96289V5.35742H6.42718V4.82171ZM5.35575 2.67885H5.89146V3.21456H5.35575V2.67885ZM4.82003 2.67885H5.35575V3.21456H4.82003V2.67885ZM4.28432 2.67885H4.82003V3.21456H4.28432V2.67885ZM3.7486 2.67885H4.28432V3.21456H3.7486V2.67885ZM3.21289 3.21456H3.7486V3.75028H3.21289V3.21456ZM3.7486 3.21456H4.28432V3.75028H3.7486V3.21456ZM5.35575 3.21456H5.89146V3.75028H5.35575V3.21456ZM4.82003 3.21456H5.35575V3.75028H4.82003V3.21456ZM4.28432 3.21456H4.82003V3.75028H4.28432V3.21456ZM7.5 1.60742H8.03571V2.14314H7.5V1.60742ZM7.5 1.07171H8.03571V1.60742H7.5V1.07171ZM8.03571 1.07171H8.57143V1.60742H8.03571V1.07171ZM8.03571 1.60742H8.57143V2.14314H8.03571V1.60742ZM8.03571 2.14314H8.57143V2.67885H8.03571V2.14314ZM8.03571 2.67885H8.57143V3.21456H8.03571V2.67885ZM8.03571 3.21456H8.57143V3.75028H8.03571V3.21456ZM7.5 3.21456H8.03571V3.75028H7.5V3.21456ZM7.5 2.67885H8.03571V3.21456H7.5V2.67885ZM7.5 2.14314H8.03571V2.67885H7.5V2.14314ZM7.5 3.75028H8.03571V4.28599H7.5V3.75028ZM8.03571 3.75028H8.57143V4.28599H8.03571V3.75028ZM8.03571 4.28599H8.57143V4.82171H8.03571V4.28599ZM8.03571 4.82171H8.57143V5.35742H8.03571V4.82171ZM7.5 4.82171H8.03571V5.35742H7.5V4.82171ZM7.5 4.28599H8.03571V4.82171H7.5V4.28599ZM10.1786 4.82171H10.7143V5.35742H10.1786V4.82171ZM10.7143 4.82171H11.25V5.35742H10.7143V4.82171ZM10.7143 4.28599H11.25V4.82171H10.7143V4.28599ZM10.7143 3.75028H11.25V4.28599H10.7143V3.75028ZM10.7143 3.21456H11.25V3.75028H10.7143V3.21456ZM10.7143 2.67885H11.25V3.21456H10.7143V2.67885ZM10.7143 2.14314H11.25V2.67885H10.7143V2.14314ZM10.7143 1.60742H11.25V2.14314H10.7143V1.60742ZM10.1786 2.67885H10.7143V3.21456H10.1786V2.67885ZM10.1786 3.21456H10.7143V3.75028H10.1786V3.21456ZM10.1786 3.75028H10.7143V4.28599H10.1786V3.75028ZM10.1786 4.28599H10.7143V4.82171H10.1786V4.28599ZM10.1786 2.14314H10.7143V2.67885H10.1786V2.14314ZM8.57143 1.60742H9.10714V2.14314H8.57143V1.60742ZM9.10714 1.60742H9.64286V2.14314H9.10714V1.60742ZM9.64286 1.60742H10.1786V2.14314H9.64286V1.60742ZM9.64286 1.07171H10.1786V1.60742H9.64286V1.07171ZM10.1786 1.07171H10.7143V1.60742H10.1786V1.07171ZM10.1786 1.60742H10.7143V2.14314H10.1786V1.60742ZM9.10714 1.07171H9.64286V1.60742H9.10714V1.07171ZM15.5371 1.60742V2.14314H15.0014V1.60742H15.5371ZM15.5371 1.07171V1.60742H15.0014V1.07171H15.5371ZM15.0014 1.07171V1.60742H14.4657V1.07171H15.0014ZM15.0014 1.60742V2.14314H14.4657V1.60742H15.0014ZM15.0014 2.14314V2.67885H14.4657V2.14314H15.0014ZM15.0014 2.67885V3.21456H14.4657V2.67885H15.0014ZM15.0014 3.21456V3.75028H14.4657V3.21456H15.0014ZM15.5371 3.21456V3.75028H15.0014V3.21456H15.5371ZM15.5371 2.67885V3.21456H15.0014V2.67885H15.5371ZM15.5371 2.14314V2.67885H15.0014V2.14314H15.5371ZM15.5371 3.75028V4.28599H15.0014V3.75028H15.5371ZM15.0014 3.75028V4.28599H14.4657V3.75028H15.0014ZM15.0014 4.28599V4.82171H14.4657V4.28599H15.0014ZM15.0014 4.82171V5.35742H14.4657V4.82171H15.0014ZM15.5371 4.82171V5.35742H15.0014V4.82171H15.5371ZM15.5371 4.28599V4.82171H15.0014V4.28599H15.5371ZM12.8585 4.82171V5.35742H12.3228V4.82171H12.8585ZM12.3228 4.28599V4.82171H11.7871V4.28599H12.3228ZM12.3228 3.75028V4.28599H11.7871V3.75028H12.3228ZM12.3228 3.21456V3.75028H11.7871V3.21456H12.3228ZM12.3228 2.67885V3.21456H11.7871V2.67885H12.3228ZM12.3228 2.14314V2.67885H11.7871V2.14314H12.3228ZM12.3228 1.60742V2.14314H11.7871V1.60742H12.3228ZM12.8585 2.67885V3.21456H12.3228V2.67885H12.8585ZM12.8585 3.21456V3.75028H12.3228V3.21456H12.8585ZM12.8585 3.75028V4.28599H12.3228V3.75028H12.8585ZM12.8585 4.28599V4.82171H12.3228V4.28599H12.8585ZM12.8585 2.14314V2.67885H12.3228V2.14314H12.8585ZM13.3943 1.60742V2.14314H12.8585V1.60742H13.3943ZM13.3943 1.07171V1.60742H12.8585V1.07171H13.3943ZM12.8585 1.07171V1.60742H12.3228V1.07171H12.8585ZM12.8585 1.60742V2.14314H12.3228V1.60742H12.8585ZM13.93 1.07171V1.60742H13.3943V1.07171H13.93ZM15.5371 0.000279188V0.535993H15.0014V0.000279188H15.5371ZM15.0014 0.000279188V0.535993H14.4657V0.000279188H15.0014ZM15.0014 0.535993V1.07171H14.4657V0.535993H15.0014ZM15.5371 0.535993V1.07171H15.0014V0.535993H15.5371ZM13.93 4.82171V5.35742H13.3943V4.82171H13.93ZM13.3943 4.82171V5.35742H12.8585V4.82171H13.3943ZM13.3943 4.28599V4.82171H12.8585V4.28599H13.3943ZM13.93 4.28599V4.82171H13.3943V4.28599H13.93ZM14.4657 4.28599V4.82171H13.93V4.28599H14.4657ZM14.4657 1.07171V1.60742H13.93V1.07171H14.4657ZM14.4657 1.60742V2.14314H13.93V1.60742H14.4657ZM13.93 1.60742V2.14314H13.3943V1.60742H13.93ZM16.0742 0.000279188H17.1456V1.07171H16.0742V0.000279188ZM16.0742 1.60742H17.1456V5.35742H16.0742V1.60742ZM17.6855 1.60742H18.2213V2.14314H17.6855V1.60742ZM17.6855 1.07171H18.2213V1.60742H17.6855V1.07171ZM18.2213 1.07171H18.757V1.60742H18.2213V1.07171ZM18.2213 1.60742H18.757V2.14314H18.2213V1.60742ZM18.2213 2.14314H18.757V2.67885H18.2213V2.14314ZM18.2213 2.67885H18.757V3.21456H18.2213V2.67885ZM18.2213 3.21456H18.757V3.75028H18.2213V3.21456ZM17.6855 3.21456H18.2213V3.75028H17.6855V3.21456ZM17.6855 2.67885H18.2213V3.21456H17.6855V2.67885ZM17.6855 2.14314H18.2213V2.67885H17.6855V2.14314ZM17.6855 3.75028H18.2213V4.28599H17.6855V3.75028ZM18.2213 3.75028H18.757V4.28599H18.2213V3.75028ZM18.2213 4.28599H18.757V4.82171H18.2213V4.28599ZM18.2213 4.82171H18.757V5.35742H18.2213V4.82171ZM17.6855 4.82171H18.2213V5.35742H17.6855V4.82171ZM17.6855 4.28599H18.2213V4.82171H17.6855V4.28599ZM20.3641 4.82171H20.8998V5.35742H20.3641V4.82171ZM20.8998 4.82171H21.4355V5.35742H20.8998V4.82171ZM20.8998 4.28599H21.4355V4.82171H20.8998V4.28599ZM20.8998 3.75028H21.4355V4.28599H20.8998V3.75028ZM20.8998 3.21456H21.4355V3.75028H20.8998V3.21456ZM20.8998 2.67885H21.4355V3.21456H20.8998V2.67885ZM20.8998 2.14314H21.4355V2.67885H20.8998V2.14314ZM20.8998 1.60742H21.4355V2.14314H20.8998V1.60742ZM20.3641 2.67885H20.8998V3.21456H20.3641V2.67885ZM20.3641 3.21456H20.8998V3.75028H20.3641V3.21456ZM20.3641 3.75028H20.8998V4.28599H20.3641V3.75028ZM20.3641 4.28599H20.8998V4.82171H20.3641V4.28599ZM20.3641 2.14314H20.8998V2.67885H20.3641V2.14314ZM18.757 1.60742H19.2927V2.14314H18.757V1.60742ZM19.2927 1.60742H19.8284V2.14314H19.2927V1.60742ZM19.8284 1.60742H20.3641V2.14314H19.8284V1.60742ZM19.8284 1.07171H20.3641V1.60742H19.8284V1.07171ZM20.3641 1.07171H20.8998V1.60742H20.3641V1.07171ZM20.3641 1.60742H20.8998V2.14314H20.3641V1.60742ZM19.2927 1.07171H19.8284V1.60742H19.2927V1.07171ZM25.1869 1.07171H25.7227V1.60742H25.1869V1.07171ZM24.6512 1.07171H25.1869V1.60742H24.6512V1.07171ZM24.1155 1.07171H24.6512V1.60742H24.1155V1.07171ZM23.5798 1.07171H24.1155V1.60742H23.5798V1.07171ZM23.0441 1.07171H23.5798V1.60742H23.0441V1.07171ZM23.0441 1.60742H23.5798V2.14314H23.0441V1.60742ZM23.5798 1.60742H24.1155V2.14314H23.5798V1.60742ZM24.1155 1.60742H24.6512V2.14314H24.1155V1.60742ZM24.6512 1.60742H25.1869V2.14314H24.6512V1.60742ZM25.1869 1.60742H25.7227V2.14314H25.1869V1.60742ZM22.5084 1.07171H23.0441V1.60742H22.5084V1.07171ZM22.5084 1.60742H23.0441V2.14314H22.5084V1.60742ZM22.5084 2.14314H23.0441V2.67885H22.5084V2.14314ZM21.9727 2.14314H22.5084V2.67885H21.9727V2.14314ZM21.9727 1.60742H22.5084V2.14314H21.9727V1.60742ZM21.9727 2.67885H22.5084V3.21456H21.9727V2.67885ZM21.9727 3.21456H22.5084V3.75028H21.9727V3.21456ZM22.5084 3.75028H23.0441V4.28599H22.5084V3.75028ZM22.5084 3.21456H23.0441V3.75028H22.5084V3.21456ZM22.5084 2.67885H23.0441V3.21456H22.5084V2.67885ZM21.9727 3.75028H22.5084V4.28599H21.9727V3.75028ZM22.5084 4.28599H23.0441V4.82171H22.5084V4.28599ZM23.0441 4.28599H23.5798V4.82171H23.0441V4.28599ZM23.5798 4.28599H24.1155V4.82171H23.5798V4.28599ZM24.6512 4.28599H25.1869V4.82171H24.6512V4.28599ZM25.1869 4.28599H25.7227V4.82171H25.1869V4.28599ZM25.1869 3.75028H25.7227V4.28599H25.1869V3.75028ZM24.6512 3.75028H25.1869V4.28599H24.6512V3.75028ZM24.1155 3.75028H24.6512V4.28599H24.1155V3.75028ZM23.5798 3.75028H24.1155V4.28599H23.5798V3.75028ZM23.0441 3.75028H23.5798V4.28599H23.0441V3.75028ZM24.6512 3.21456H25.1869V3.75028H24.6512V3.21456ZM24.6512 2.67885H25.1869V3.21456H24.6512V2.67885ZM24.6512 2.14314H25.1869V2.67885H24.6512V2.14314ZM25.1869 2.14314H25.7227V2.67885H25.1869V2.14314ZM25.1869 2.67885H25.7227V3.21456H25.1869V2.67885ZM25.1869 3.21456H25.7227V3.75028H25.1869V3.21456ZM24.6512 4.82171H25.1869V5.35742H24.6512V4.82171ZM24.6512 5.35742H25.1869V5.89314H24.6512V5.35742ZM25.1869 5.35742H25.7227V5.89314H25.1869V5.35742ZM25.1869 4.82171H25.7227V5.35742H25.1869V4.82171ZM21.9727 5.35742H22.5084V5.89314H21.9727V5.35742ZM22.5084 5.35742H23.0441V5.89314H22.5084V5.35742ZM22.5084 5.89314H23.0441V6.42885H22.5084V5.89314ZM23.0441 5.89314H23.5798V6.42885H23.0441V5.89314ZM23.0441 5.35742H23.5798V5.89314H23.0441V5.35742ZM23.5798 5.35742H24.1155V5.89314H23.5798V5.35742ZM24.1155 5.35742H24.6512V5.89314H24.1155V5.35742ZM24.6512 5.89314H25.1869V6.42885H24.6512V5.89314ZM24.1155 5.89314H24.6512V6.42885H24.1155V5.89314ZM23.5798 5.89314H24.1155V6.42885H23.5798V5.89314ZM5.89565 12.0003H6.43136V12.536H5.89565V12.0003ZM5.35993 12.0003H5.89565V12.536H5.35993V12.0003ZM5.35993 12.536H5.89565V13.0717H5.35993V12.536ZM5.89565 12.536H6.43136V13.0717H5.89565V12.536ZM6.43136 12.536H6.96708V13.0717H6.43136V12.536ZM6.43136 12.0003H6.96708V12.536H6.43136V12.0003ZM6.96708 12.0003H7.50279V12.536H6.96708V12.0003ZM7.50279 12.0003H8.0385V12.536H7.50279V12.0003ZM7.50279 12.536H8.0385V13.0717H7.50279V12.536ZM6.96708 12.536H7.50279V13.0717H6.96708V12.536ZM7.50279 13.0717H8.0385V13.6074H7.50279V13.0717ZM8.0385 12.536H8.57422V13.0717H8.0385V12.536ZM8.0385 13.0717H8.57422V13.6074H8.0385V13.0717ZM8.0385 15.7503H8.57422V16.286H8.0385V15.7503ZM8.0385 16.286H8.57422V16.8217H8.0385V16.286ZM7.50279 16.286H8.0385V16.8217H7.50279V16.286ZM7.50279 15.7503H8.0385V16.286H7.50279V15.7503ZM6.96708 16.286H7.50279V16.8217H6.96708V16.286ZM7.50279 16.8217H8.0385V17.3574H7.50279V16.8217ZM6.96708 16.8217H7.50279V17.3574H6.96708V16.8217ZM6.43136 16.8217H6.96708V17.3574H6.43136V16.8217ZM6.43136 16.286H6.96708V16.8217H6.43136V16.286ZM5.89565 16.8217H6.43136V17.3574H5.89565V16.8217ZM5.35993 16.8217H5.89565V17.3574H5.35993V16.8217ZM5.35993 16.286H5.89565V16.8217H5.35993V16.286ZM5.89565 16.286H6.43136V16.8217H5.89565V16.286ZM5.89565 15.7503H6.43136V16.286H5.89565V15.7503ZM5.35993 15.7503H5.89565V16.286H5.35993V15.7503ZM4.82422 16.286H5.35993V16.8217H4.82422V16.286ZM4.82422 15.7503H5.35993V16.286H4.82422V15.7503ZM4.82422 15.2146H5.35993V15.7503H4.82422V15.2146ZM4.82422 14.6789H5.35993V15.2146H4.82422V14.6789ZM4.82422 14.1431H5.35993V14.6789H4.82422V14.1431ZM4.82422 13.6074H5.35993V14.1431H4.82422V13.6074ZM4.82422 13.0717H5.35993V13.6074H4.82422V13.0717ZM5.35993 13.0717H5.89565V13.6074H5.35993V13.0717ZM4.82422 12.536H5.35993V13.0717H4.82422V12.536ZM5.89565 13.0717H6.43136V13.6074H5.89565V13.0717ZM5.35993 13.6074H5.89565V14.1431H5.35993V13.6074ZM5.35993 14.1431H5.89565V14.6789H5.35993V14.1431ZM5.35993 14.6789H5.89565V15.2146H5.35993V14.6789ZM5.35993 15.2146H5.89565V15.7503H5.35993V15.2146ZM8.0385 15.2146H8.57422V15.7503H8.0385V15.2146ZM7.50279 15.2146H8.0385V15.7503H7.50279V15.2146ZM7.50279 14.6789H8.0385V15.2146H7.50279V14.6789ZM8.0385 14.6789H8.57422V15.2146H8.0385V14.6789ZM8.0385 14.1431H8.57422V14.6789H8.0385V14.1431ZM7.50279 14.1431H8.0385V14.6789H7.50279V14.1431ZM6.96708 14.1431H7.50279V14.6789H6.96708V14.1431ZM6.43136 14.1431H6.96708V14.6789H6.43136V14.1431ZM6.43136 14.6789H6.96708V15.2146H6.43136V14.6789ZM6.96708 14.6789H7.50279V15.2146H6.96708V14.6789ZM10.1828 13.0717H10.7185V13.6074H10.1828V13.0717ZM9.64704 13.0717H10.1828V13.6074H9.64704V13.0717ZM9.64704 13.6074H10.1828V14.1431H9.64704V13.6074ZM10.1828 13.6074H10.7185V14.1431H10.1828V13.6074ZM10.7185 13.0717H11.2542V13.6074H10.7185V13.0717ZM11.2542 13.0717H11.7899V13.6074H11.2542V13.0717ZM11.7899 13.0717H12.3256V13.6074H11.7899V13.0717ZM11.7899 13.6074H12.3256V14.1431H11.7899V13.6074ZM11.2542 13.6074H11.7899V14.1431H11.2542V13.6074ZM12.3256 13.6074H12.8613V14.1431H12.3256V13.6074ZM12.3256 14.1431H12.8613V14.6789H12.3256V14.1431ZM12.3256 16.286H12.8613V16.8217H12.3256V16.286ZM11.7899 16.286H12.3256V16.8217H11.7899V16.286ZM11.7899 14.1431H12.3256V14.6789H11.7899V14.1431ZM11.2542 16.286H11.7899V16.8217H11.2542V16.286ZM11.7899 16.8217H12.3256V17.3574H11.7899V16.8217ZM11.2542 16.8217H11.7899V17.3574H11.2542V16.8217ZM10.7185 16.8217H11.2542V17.3574H10.7185V16.8217ZM10.1828 16.8217H10.7185V17.3574H10.1828V16.8217ZM9.64704 16.8217H10.1828V17.3574H9.64704V16.8217ZM9.64704 16.286H10.1828V16.8217H9.64704V16.286ZM10.1828 16.286H10.7185V16.8217H10.1828V16.286ZM9.64704 15.7503H10.1828V16.286H9.64704V15.7503ZM9.11133 16.286H9.64704V16.8217H9.11133V16.286ZM9.11133 15.7503H9.64704V16.286H9.11133V15.7503ZM9.11133 15.2146H9.64704V15.7503H9.11133V15.2146ZM9.11133 14.6789H9.64704V15.2146H9.11133V14.6789ZM9.11133 14.1431H9.64704V14.6789H9.11133V14.1431ZM9.11133 13.6074H9.64704V14.1431H9.11133V13.6074ZM9.64704 14.1431H10.1828V14.6789H9.64704V14.1431ZM9.64704 14.6789H10.1828V15.2146H9.64704V14.6789ZM9.64704 15.2146H10.1828V15.7503H9.64704V15.2146ZM10.7185 16.286H11.2542V16.8217H10.7185V16.286ZM10.7185 13.6074H11.2542V14.1431H10.7185V13.6074ZM11.7899 14.6789H12.3256V15.2146H11.7899V14.6789ZM12.3256 14.6789H12.8613V15.2146H12.3256V14.6789ZM10.1828 15.2146H10.7185V15.7503H10.1828V15.2146ZM10.7185 15.2146H11.2542V15.7503H10.7185V15.2146ZM11.2542 15.2146H11.7899V15.7503H11.2542V15.2146ZM11.7899 15.2146H12.3256V15.7503H11.7899V15.2146ZM12.3256 15.2146H12.8613V15.7503H12.3256V15.2146ZM11.2542 14.6789H11.7899V15.2146H11.2542V14.6789ZM10.7185 14.6789H11.2542V15.2146H10.7185V14.6789ZM10.1828 14.6789H10.7185V15.2146H10.1828V14.6789ZM16.6127 17.3574H16.077V16.8217H16.6127V17.3574ZM16.6127 16.8217H16.077V16.286H16.6127V16.8217ZM16.077 16.8217H15.5413V16.286H16.077V16.8217ZM15.5413 17.3574H15.0056V16.8217H15.5413V17.3574ZM15.0056 17.3574H14.4699V16.8217H15.0056V17.3574ZM14.4699 17.3574H13.9342V16.8217H14.4699V17.3574ZM14.4699 16.8217H13.9342V16.286H14.4699V16.8217ZM15.0056 16.8217H14.4699V16.286H15.0056V16.8217ZM13.9342 16.8217H13.3984V16.286H13.9342V16.8217ZM13.9342 16.286H13.3984V15.7503H13.9342V16.286ZM13.9342 14.1431H13.3984V13.6074H13.9342V14.1431ZM14.4699 14.1431H13.9342V13.6074H14.4699V14.1431ZM14.4699 16.286H13.9342V15.7503H14.4699V16.286ZM15.0056 14.1431H14.4699V13.6074H15.0056V14.1431ZM14.4699 13.6074H13.9342V13.0717H14.4699V13.6074ZM15.0056 13.6074H14.4699V13.0717H15.0056V13.6074ZM15.5413 13.6074H15.0056V13.0717H15.5413V13.6074ZM16.077 13.6074H15.5413V13.0717H16.077V13.6074ZM16.6127 13.6074H16.077V13.0717H16.6127V13.6074ZM16.6127 14.1431H16.077V13.6074H16.6127V14.1431ZM16.077 14.1431H15.5413V13.6074H16.077V14.1431ZM16.6127 14.6789H16.077V14.1431H16.6127V14.6789ZM17.1484 14.1431H16.6127V13.6074H17.1484V14.1431ZM17.1484 14.6789H16.6127V14.1431H17.1484V14.6789ZM17.1484 15.2146H16.6127V14.6789H17.1484V15.2146ZM17.1484 15.7503H16.6127V15.2146H17.1484V15.7503ZM17.1484 16.286H16.6127V15.7503H17.1484V16.286ZM17.1484 16.8217H16.6127V16.286H17.1484V16.8217ZM16.6127 16.286H16.077V15.7503H16.6127V16.286ZM16.6127 15.7503H16.077V15.2146H16.6127V15.7503ZM16.6127 15.2146H16.077V14.6789H16.6127V15.2146ZM15.5413 14.1431H15.0056V13.6074H15.5413V14.1431ZM15.5413 16.8217H15.0056V16.286H15.5413V16.8217ZM16.6127 16.8217H17.1484V17.3574H16.6127V16.8217ZM15.5413 14.6789H16.077V15.2146H15.5413V14.6789ZM15.0056 14.6789H15.5413V15.2146H15.0056V14.6789ZM14.4699 14.6789H15.0056V15.2146H14.4699V14.6789ZM13.9342 14.6789H14.4699V15.2146H13.9342V14.6789ZM13.3984 15.2146H13.9342V15.7503H13.3984V15.2146ZM13.9342 15.2146H14.4699V15.7503H13.9342V15.2146ZM15.5413 15.2146H16.077V15.7503H15.5413V15.2146ZM15.0056 15.2146H15.5413V15.7503H15.0056V15.2146ZM14.4699 15.2146H15.0056V15.7503H14.4699V15.2146ZM17.6855 13.6074H18.2213V14.1431H17.6855V13.6074ZM17.6855 13.0717H18.2213V13.6074H17.6855V13.0717ZM18.2213 13.0717H18.757V13.6074H18.2213V13.0717ZM18.2213 13.6074H18.757V14.1431H18.2213V13.6074ZM18.2213 14.1431H18.757V14.6789H18.2213V14.1431ZM18.2213 14.6789H18.757V15.2146H18.2213V14.6789ZM18.2213 15.2146H18.757V15.7503H18.2213V15.2146ZM17.6855 15.2146H18.2213V15.7503H17.6855V15.2146ZM17.6855 14.6789H18.2213V15.2146H17.6855V14.6789ZM17.6855 14.1431H18.2213V14.6789H17.6855V14.1431ZM17.6855 15.7503H18.2213V16.286H17.6855V15.7503ZM18.2213 15.7503H18.757V16.286H18.2213V15.7503ZM18.2213 16.286H18.757V16.8217H18.2213V16.286ZM18.2213 16.8217H18.757V17.3574H18.2213V16.8217ZM17.6855 16.8217H18.2213V17.3574H17.6855V16.8217ZM17.6855 16.286H18.2213V16.8217H17.6855V16.286ZM18.757 13.6074H19.2927V14.1431H18.757V13.6074ZM19.2927 13.6074H19.8284V14.1431H19.2927V13.6074ZM19.8284 13.6074H20.3641V14.1431H19.8284V13.6074ZM19.8284 13.0717H20.3641V13.6074H19.8284V13.0717ZM19.2927 13.0717H19.8284V13.6074H19.2927V13.0717ZM18.757 14.1431H19.2927V14.6789H18.757V14.1431ZM20.3641 13.6074H20.8998V14.1431H20.3641V13.6074ZM19.8284 14.1431H20.3641V14.6789H19.8284V14.1431Z" fill="white"/>
</svg>
