<svg width="36" height="19" viewBox="0 0 36 19" fill="none" xmlns="http://www.w3.org/2000/svg">
<path d="M0 0.000279188H0.535714V0.535993H0V0.000279188ZM0.535714 0.000279188H1.07143V0.535993H0.535714V0.000279188ZM1.07143 0.000279188H1.60714V0.535993H1.07143V0.000279188ZM1.60714 0.000279188H2.14286V0.535993H1.60714V0.000279188ZM2.14286 0.000279188H2.67857V0.535993H2.14286V0.000279188ZM2.67857 0.000279188H3.21429V0.535993H2.67857V0.000279188ZM2.67857 0.535993H3.21429V1.07171H2.67857V0.535993ZM2.14286 0.535993H2.67857V1.07171H2.14286V0.535993ZM1.60714 0.535993H2.14286V1.07171H1.60714V0.535993ZM1.07143 0.535993H1.60714V1.07171H1.07143V0.535993ZM0.535714 0.535993H1.07143V1.07171H0.535714V0.535993ZM0 0.535993H0.535714V1.07171H0V0.535993ZM3.21429 0.535993H3.75V1.07171H3.21429V0.535993ZM2.67857 1.07171H3.21429V1.60742H2.67857V1.07171ZM3.21429 1.07171H3.75V1.60742H3.21429V1.07171ZM3.21429 1.60742H3.75V2.14314H3.21429V1.60742ZM3.21429 2.14314H3.75V2.67885H3.21429V2.14314ZM2.67857 2.14314H3.21429V2.67885H2.67857V2.14314ZM2.67857 1.60742H3.21429V2.14314H2.67857V1.60742ZM2.67857 2.67885H3.21429V3.21456H2.67857V2.67885ZM2.67857 3.21456H3.21429V3.75028H2.67857V3.21456ZM2.14286 3.21456H2.67857V3.75028H2.14286V3.21456ZM2.14286 2.67885H2.67857V3.21456H2.14286V2.67885ZM1.60714 2.67885H2.14286V3.21456H1.60714V2.67885ZM1.60714 3.21456H2.14286V3.75028H1.60714V3.21456ZM1.07143 3.21456H1.60714V3.75028H1.07143V3.21456ZM1.07143 2.67885H1.60714V3.21456H1.07143V2.67885ZM0.535714 2.67885H1.07143V3.21456H0.535714V2.67885ZM0 2.67885H0.535714V3.21456H0V2.67885ZM0 3.21456H0.535714V3.75028H0V3.21456ZM0.535714 3.21456H1.07143V3.75028H0.535714V3.21456ZM0 1.07171H0.535714V1.60742H0V1.07171ZM0.535714 1.07171H1.07143V1.60742H0.535714V1.07171ZM0.535714 1.60742H1.07143V2.14314H0.535714V1.60742ZM0.535714 2.14314H1.07143V2.67885H0.535714V2.14314ZM0 1.60742H0.535714V2.14314H0V1.60742ZM0 2.14314H0.535714V2.67885H0V2.14314ZM0 3.75028H0.535714V4.28599H0V3.75028ZM0.535714 3.75028H1.07143V4.28599H0.535714V3.75028ZM0.535714 4.28599H1.07143V4.82171H0.535714V4.28599ZM0.535714 4.82171H1.07143V5.35742H0.535714V4.82171ZM0 4.82171H0.535714V5.35742H0V4.82171ZM0 4.28599H0.535714V4.82171H0V4.28599ZM3.21429 2.67885H3.75V3.21456H3.21429V2.67885ZM4.28711 1.60742H4.82282V2.14314H4.28711V1.60742ZM4.28711 1.07171H4.82282V1.60742H4.28711V1.07171ZM4.82282 1.07171H5.35854V1.60742H4.82282V1.07171ZM4.82282 1.60742H5.35854V2.14314H4.82282V1.60742ZM4.82282 2.14314H5.35854V2.67885H4.82282V2.14314ZM4.82282 2.67885H5.35854V3.21456H4.82282V2.67885ZM4.82282 3.21456H5.35854V3.75028H4.82282V3.21456ZM4.28711 3.21456H4.82282V3.75028H4.28711V3.21456ZM4.28711 2.67885H4.82282V3.21456H4.28711V2.67885ZM4.28711 2.14314H4.82282V2.67885H4.28711V2.14314ZM4.28711 3.75028H4.82282V4.28599H4.28711V3.75028ZM4.82282 3.75028H5.35854V4.28599H4.82282V3.75028ZM4.82282 4.28599H5.35854V4.82171H4.82282V4.28599ZM4.82282 4.82171H5.35854V5.35742H4.82282V4.82171ZM4.28711 4.82171H4.82282V5.35742H4.28711V4.82171ZM4.28711 4.28599H4.82282V4.82171H4.28711V4.28599ZM5.35854 1.60742H5.89425V2.14314H5.35854V1.60742ZM5.89425 1.60742H6.42997V2.14314H5.89425V1.60742ZM6.42997 1.60742H6.96568V2.14314H6.42997V1.60742ZM6.42997 1.07171H6.96568V1.60742H6.42997V1.07171ZM5.89425 1.07171H6.42997V1.60742H5.89425V1.07171ZM5.35854 2.14314H5.89425V2.67885H5.35854V2.14314ZM6.96568 1.60742H7.5014V2.14314H6.96568V1.60742ZM6.42997 2.14314H6.96568V2.67885H6.42997V2.14314ZM9.10854 1.07171H9.64425V1.60742H9.10854V1.07171ZM8.57282 1.07171H9.10854V1.60742H8.57282V1.07171ZM8.57282 1.60742H9.10854V2.14314H8.57282V1.60742ZM9.10854 1.60742H9.64425V2.14314H9.10854V1.60742ZM9.64425 1.07171H10.18V1.60742H9.64425V1.07171ZM10.18 1.07171H10.7157V1.60742H10.18V1.07171ZM10.7157 1.07171H11.2514V1.60742H10.7157V1.07171ZM10.7157 1.60742H11.2514V2.14314H10.7157V1.60742ZM10.18 1.60742H10.7157V2.14314H10.18V1.60742ZM10.7157 2.67885H11.2514V3.21456H10.7157V2.67885ZM11.2514 1.60742H11.7871V2.14314H11.2514V1.60742ZM11.2514 2.14314H11.7871V2.67885H11.2514V2.14314ZM11.2514 2.67885H11.7871V3.21456H11.2514V2.67885ZM11.2514 3.21456H11.7871V3.75028H11.2514V3.21456ZM11.2514 3.75028H11.7871V4.28599H11.2514V3.75028ZM11.2514 4.28599H11.7871V4.82171H11.2514V4.28599ZM10.7157 4.28599H11.2514V4.82171H10.7157V4.28599ZM10.7157 3.75028H11.2514V4.28599H10.7157V3.75028ZM10.7157 3.21456H11.2514V3.75028H10.7157V3.21456ZM10.7157 2.14314H11.2514V2.67885H10.7157V2.14314ZM10.18 4.28599H10.7157V4.82171H10.18V4.28599ZM10.7157 4.82171H11.2514V5.35742H10.7157V4.82171ZM10.18 4.82171H10.7157V5.35742H10.18V4.82171ZM9.64425 4.82171H10.18V5.35742H9.64425V4.82171ZM9.10854 4.82171H9.64425V5.35742H9.10854V4.82171ZM8.57282 4.82171H9.10854V5.35742H8.57282V4.82171ZM8.57282 4.28599H9.10854V4.82171H8.57282V4.28599ZM9.10854 4.28599H9.64425V4.82171H9.10854V4.28599ZM8.57282 3.75028H9.10854V4.28599H8.57282V3.75028ZM8.03711 4.28599H8.57282V4.82171H8.03711V4.28599ZM8.03711 3.75028H8.57282V4.28599H8.03711V3.75028ZM8.03711 3.21456H8.57282V3.75028H8.03711V3.21456ZM8.03711 2.67885H8.57282V3.21456H8.03711V2.67885ZM8.03711 2.14314H8.57282V2.67885H8.03711V2.14314ZM8.03711 1.60742H8.57282V2.14314H8.03711V1.60742ZM8.57282 2.14314H9.10854V2.67885H8.57282V2.14314ZM8.57282 2.67885H9.10854V3.21456H8.57282V2.67885ZM8.57282 3.21456H9.10854V3.75028H8.57282V3.21456ZM9.64425 4.28599H10.18V4.82171H9.64425V4.28599ZM9.64425 1.60742H10.18V2.14314H9.64425V1.60742ZM12.3242 1.60742H12.8599V2.14314H12.3242V1.60742ZM12.3242 1.07171H12.8599V1.60742H12.3242V1.07171ZM12.8599 1.07171H13.3956V1.60742H12.8599V1.07171ZM12.8599 1.60742H13.3956V2.14314H12.8599V1.60742ZM12.8599 2.14314H13.3956V2.67885H12.8599V2.14314ZM12.8599 2.67885H13.3956V3.21456H12.8599V2.67885ZM12.8599 3.21456H13.3956V3.75028H12.8599V3.21456ZM12.3242 3.21456H12.8599V3.75028H12.3242V3.21456ZM12.3242 2.67885H12.8599V3.21456H12.3242V2.67885ZM12.3242 2.14314H12.8599V2.67885H12.3242V2.14314ZM12.3242 3.75028H12.8599V4.28599H12.3242V3.75028ZM12.8599 3.75028H13.3956V4.28599H12.8599V3.75028ZM12.8599 4.28599H13.3956V4.82171H12.8599V4.28599ZM12.8599 4.82171H13.3956V5.35742H12.8599V4.82171ZM12.3242 4.82171H12.8599V5.35742H12.3242V4.82171ZM12.3242 4.28599H12.8599V4.82171H12.3242V4.28599ZM15.0028 4.82171H15.5385V5.35742H15.0028V4.82171ZM15.5385 4.28599H16.0742V4.82171H15.5385V4.28599ZM15.5385 3.75028H16.0742V4.28599H15.5385V3.75028ZM15.5385 3.21456H16.0742V3.75028H15.5385V3.21456ZM15.5385 2.67885H16.0742V3.21456H15.5385V2.67885ZM15.5385 2.14314H16.0742V2.67885H15.5385V2.14314ZM15.5385 1.60742H16.0742V2.14314H15.5385V1.60742ZM15.0028 2.67885H15.5385V3.21456H15.0028V2.67885ZM15.0028 3.21456H15.5385V3.75028H15.0028V3.21456ZM15.0028 3.75028H15.5385V4.28599H15.0028V3.75028ZM15.0028 4.28599H15.5385V4.82171H15.0028V4.28599ZM15.0028 2.14314H15.5385V2.67885H15.0028V2.14314ZM13.3956 1.60742H13.9314V2.14314H13.3956V1.60742ZM13.9314 1.60742H14.4671V2.14314H13.9314V1.60742ZM14.4671 1.60742H15.0028V2.14314H14.4671V1.60742ZM14.4671 1.07171H15.0028V1.60742H14.4671V1.07171ZM15.0028 1.07171H15.5385V1.60742H15.0028V1.07171ZM15.0028 1.60742H15.5385V2.14314H15.0028V1.60742ZM13.9314 1.07171H14.4671V1.60742H13.9314V1.07171ZM13.3956 4.82171H13.9314V5.35742H13.3956V4.82171ZM13.9314 4.82171H14.4671V5.35742H13.9314V4.82171ZM14.4671 4.82171H15.0028V5.35742H14.4671V4.82171ZM14.4671 4.28599H15.0028V4.82171H14.4671V4.28599ZM13.9314 4.28599H14.4671V4.82171H13.9314V4.28599ZM13.3956 4.28599H13.9314V4.82171H13.3956V4.28599ZM12.3242 5.35742H12.8599V5.89314H12.3242V5.35742ZM12.8599 5.35742H13.3956V5.89314H12.8599V5.35742ZM12.8599 5.89314H13.3956V6.42885H12.8599V5.89314ZM12.3242 5.89314H12.8599V6.42885H12.3242V5.89314ZM20.3613 4.82171H19.8256V4.28599H20.3613V4.82171ZM20.3613 5.35742H19.8256V4.82171H20.3613V5.35742ZM19.8256 5.35742H19.2899V4.82171H19.8256V5.35742ZM19.8256 4.82171H19.2899V4.28599H19.8256V4.82171ZM19.8256 4.28599H19.2899V3.75028H19.8256V4.28599ZM19.8256 3.75028H19.2899V3.21456H19.8256V3.75028ZM19.8256 3.21456H19.2899V2.67885H19.8256V3.21456ZM20.3613 3.21456H19.8256V2.67885H20.3613V3.21456ZM20.3613 3.75028H19.8256V3.21456H20.3613V3.75028ZM20.3613 4.28599H19.8256V3.75028H20.3613V4.28599ZM20.3613 2.67885H19.8256V2.14314H20.3613V2.67885ZM19.8256 2.67885H19.2899V2.14314H19.8256V2.67885ZM19.8256 2.14314H19.2899V1.60742H19.8256V2.14314ZM19.8256 1.60742H19.2899V1.07171H19.8256V1.60742ZM20.3613 1.60742H19.8256V1.07171H20.3613V1.60742ZM20.3613 2.14314H19.8256V1.60742H20.3613V2.14314ZM17.6828 1.60742H17.147V1.07171H17.6828V1.60742ZM17.147 1.60742H16.6113V1.07171H17.147V1.60742ZM17.147 2.14314H16.6113V1.60742H17.147V2.14314ZM17.147 2.67885H16.6113V2.14314H17.147V2.67885ZM17.147 3.21456H16.6113V2.67885H17.147V3.21456ZM17.147 3.75028H16.6113V3.21456H17.147V3.75028ZM17.147 4.28599H16.6113V3.75028H17.147V4.28599ZM17.147 4.82171H16.6113V4.28599H17.147V4.82171ZM17.6828 3.75028H17.147V3.21456H17.6828V3.75028ZM17.6828 3.21456H17.147V2.67885H17.6828V3.21456ZM17.6828 2.67885H17.147V2.14314H17.6828V2.67885ZM17.6828 2.14314H17.147V1.60742H17.6828V2.14314ZM17.6828 4.28599H17.147V3.75028H17.6828V4.28599ZM19.2899 4.82171H18.7542V4.28599H19.2899V4.82171ZM18.7542 4.82171H18.2185V4.28599H18.7542V4.82171ZM18.2185 4.82171H17.6828V4.28599H18.2185V4.82171ZM18.2185 5.35742H17.6828V4.82171H18.2185V5.35742ZM17.6828 5.35742H17.147V4.82171H17.6828V5.35742ZM17.6828 4.82171H17.147V4.28599H17.6828V4.82171ZM18.7542 5.35742H18.2185V4.82171H18.7542V5.35742ZM20.8984 0.000279188H21.4342V0.535993H20.8984V0.000279188ZM21.4342 0.000279188H21.9699V0.535993H21.4342V0.000279188ZM21.4342 0.535993H21.9699V1.07171H21.4342V0.535993ZM21.4342 1.07171H21.9699V1.60742H21.4342V1.07171ZM21.4342 1.60742H21.9699V2.14314H21.4342V1.60742ZM21.4342 2.14314H21.9699V2.67885H21.4342V2.14314ZM21.4342 2.67885H21.9699V3.21456H21.4342V2.67885ZM20.8984 2.67885H21.4342V3.21456H20.8984V2.67885ZM20.8984 3.21456H21.4342V3.75028H20.8984V3.21456ZM20.8984 3.75028H21.4342V4.28599H20.8984V3.75028ZM20.8984 4.28599H21.4342V4.82171H20.8984V4.28599ZM20.8984 4.82171H21.4342V5.35742H20.8984V4.82171ZM21.4342 4.82171H21.9699V5.35742H21.4342V4.82171ZM21.4342 4.28599H21.9699V4.82171H21.4342V4.28599ZM21.4342 3.75028H21.9699V4.28599H21.4342V3.75028ZM21.4342 3.21456H21.9699V3.75028H21.4342V3.21456ZM20.8984 2.14314H21.4342V2.67885H20.8984V2.14314ZM20.8984 1.60742H21.4342V2.14314H20.8984V1.60742ZM20.8984 1.07171H21.4342V1.60742H20.8984V1.07171ZM20.8984 0.535993H21.4342V1.07171H20.8984V0.535993ZM22.5098 1.60742H23.0455V2.14314H22.5098V1.60742ZM23.0455 2.14314H23.5812V2.67885H23.0455V2.14314ZM22.5098 2.14314H23.0455V2.67885H22.5098V2.14314ZM22.5098 2.67885H23.0455V3.21456H22.5098V2.67885ZM23.0455 2.67885H23.5812V3.21456H23.0455V2.67885ZM23.0455 3.21456H23.5812V3.75028H23.0455V3.21456ZM23.5812 3.21456H24.1169V3.75028H23.5812V3.21456ZM24.1169 3.21456H24.6526V3.75028H24.1169V3.21456ZM24.6526 2.67885H25.1883V3.21456H24.6526V2.67885ZM24.1169 2.67885H24.6526V3.21456H24.1169V2.67885ZM23.5812 2.67885H24.1169V3.21456H23.5812V2.67885ZM24.6526 3.21456H25.1883V3.75028H24.6526V3.21456ZM25.1883 3.21456H25.7241V3.75028H25.1883V3.21456ZM25.1883 3.75028H25.7241V4.28599H25.1883V3.75028ZM24.6526 3.75028H25.1883V4.28599H24.6526V3.75028ZM24.6526 4.28599H25.1883V4.82171H24.6526V4.28599ZM25.1883 4.28599H25.7241V4.82171H25.1883V4.28599ZM24.6526 4.82171H25.1883V5.35742H24.6526V4.82171ZM24.1169 4.28599H24.6526V4.82171H24.1169V4.28599ZM23.5812 4.28599H24.1169V4.82171H23.5812V4.28599ZM23.0455 4.28599H23.5812V4.82171H23.0455V4.28599ZM22.5098 4.28599H23.0455V4.82171H22.5098V4.28599ZM23.0455 4.82171H23.5812V5.35742H23.0455V4.82171ZM23.5812 4.82171H24.1169V5.35742H23.5812V4.82171ZM24.1169 4.82171H24.6526V5.35742H24.1169V4.82171ZM25.1883 1.60742H25.7241V2.14314H25.1883V1.60742ZM24.6526 1.60742H25.1883V2.14314H24.6526V1.60742ZM24.6526 1.07171H25.1883V1.60742H24.6526V1.07171ZM24.1169 1.07171H24.6526V1.60742H24.1169V1.07171ZM23.5812 1.07171H24.1169V1.60742H23.5812V1.07171ZM23.0455 1.07171H23.5812V1.60742H23.0455V1.07171ZM23.0455 1.60742H23.5812V2.14314H23.0455V1.60742ZM23.5812 1.60742H24.1169V2.14314H23.5812V1.60742ZM24.1169 1.60742H24.6526V2.14314H24.1169V1.60742ZM26.2598 0.000279188H27.3312V1.07171H26.2598V0.000279188ZM26.2598 1.60742H27.3312V5.35742H26.2598V1.60742ZM28.9425 1.07171H29.4782V1.60742H28.9425V1.07171ZM28.4068 1.07171H28.9425V1.60742H28.4068V1.07171ZM28.4068 1.60742H28.9425V2.14314H28.4068V1.60742ZM28.9425 1.60742H29.4782V2.14314H28.9425V1.60742ZM29.4782 1.07171H30.014V1.60742H29.4782V1.07171ZM30.014 1.07171H30.5497V1.60742H30.014V1.07171ZM30.5497 1.07171H31.0854V1.60742H30.5497V1.07171ZM30.5497 1.60742H31.0854V2.14314H30.5497V1.60742ZM30.014 1.60742H30.5497V2.14314H30.014V1.60742ZM30.5497 2.67885H31.0854V3.21456H30.5497V2.67885ZM31.0854 1.60742H31.6211V2.14314H31.0854V1.60742ZM31.0854 2.14314H31.6211V2.67885H31.0854V2.14314ZM31.0854 2.67885H31.6211V3.21456H31.0854V2.67885ZM31.0854 3.21456H31.6211V3.75028H31.0854V3.21456ZM31.0854 3.75028H31.6211V4.28599H31.0854V3.75028ZM31.0854 4.28599H31.6211V4.82171H31.0854V4.28599ZM30.5497 4.28599H31.0854V4.82171H30.5497V4.28599ZM30.5497 3.75028H31.0854V4.28599H30.5497V3.75028ZM30.5497 3.21456H31.0854V3.75028H30.5497V3.21456ZM30.5497 2.14314H31.0854V2.67885H30.5497V2.14314ZM30.014 4.28599H30.5497V4.82171H30.014V4.28599ZM30.5497 4.82171H31.0854V5.35742H30.5497V4.82171ZM30.014 4.82171H30.5497V5.35742H30.014V4.82171ZM29.4782 4.82171H30.014V5.35742H29.4782V4.82171ZM28.9425 4.82171H29.4782V5.35742H28.9425V4.82171ZM28.4068 4.82171H28.9425V5.35742H28.4068V4.82171ZM28.4068 4.28599H28.9425V4.82171H28.4068V4.28599ZM28.9425 4.28599H29.4782V4.82171H28.9425V4.28599ZM28.4068 3.75028H28.9425V4.28599H28.4068V3.75028ZM27.8711 4.28599H28.4068V4.82171H27.8711V4.28599ZM27.8711 3.75028H28.4068V4.28599H27.8711V3.75028ZM27.8711 3.21456H28.4068V3.75028H27.8711V3.21456ZM27.8711 2.67885H28.4068V3.21456H27.8711V2.67885ZM27.8711 2.14314H28.4068V2.67885H27.8711V2.14314ZM27.8711 1.60742H28.4068V2.14314H27.8711V1.60742ZM28.4068 2.14314H28.9425V2.67885H28.4068V2.14314ZM28.4068 2.67885H28.9425V3.21456H28.4068V2.67885ZM28.4068 3.21456H28.9425V3.75028H28.4068V3.21456ZM29.4782 4.28599H30.014V4.82171H29.4782V4.28599ZM29.4782 1.60742H30.014V2.14314H29.4782V1.60742ZM32.1582 1.60742H32.6939V2.14314H32.1582V1.60742ZM32.1582 1.07171H32.6939V1.60742H32.1582V1.07171ZM32.6939 1.07171H33.2296V1.60742H32.6939V1.07171ZM32.6939 1.60742H33.2296V2.14314H32.6939V1.60742ZM32.6939 2.14314H33.2296V2.67885H32.6939V2.14314ZM32.6939 2.67885H33.2296V3.21456H32.6939V2.67885ZM32.6939 3.21456H33.2296V3.75028H32.6939V3.21456ZM32.1582 3.21456H32.6939V3.75028H32.1582V3.21456ZM32.1582 2.67885H32.6939V3.21456H32.1582V2.67885ZM32.1582 2.14314H32.6939V2.67885H32.1582V2.14314ZM32.1582 3.75028H32.6939V4.28599H32.1582V3.75028ZM32.6939 3.75028H33.2296V4.28599H32.6939V3.75028ZM32.6939 4.28599H33.2296V4.82171H32.6939V4.28599ZM32.6939 4.82171H33.2296V5.35742H32.6939V4.82171ZM32.1582 4.82171H32.6939V5.35742H32.1582V4.82171ZM32.1582 4.28599H32.6939V4.82171H32.1582V4.28599ZM34.8368 4.82171H35.3725V5.35742H34.8368V4.82171ZM35.3725 4.82171H35.9082V5.35742H35.3725V4.82171ZM35.3725 4.28599H35.9082V4.82171H35.3725V4.28599ZM35.3725 3.75028H35.9082V4.28599H35.3725V3.75028ZM35.3725 3.21456H35.9082V3.75028H35.3725V3.21456ZM35.3725 2.67885H35.9082V3.21456H35.3725V2.67885ZM35.3725 2.14314H35.9082V2.67885H35.3725V2.14314ZM35.3725 1.60742H35.9082V2.14314H35.3725V1.60742ZM34.8368 2.67885H35.3725V3.21456H34.8368V2.67885ZM34.8368 3.21456H35.3725V3.75028H34.8368V3.21456ZM34.8368 3.75028H35.3725V4.28599H34.8368V3.75028ZM34.8368 4.28599H35.3725V4.82171H34.8368V4.28599ZM34.8368 2.14314H35.3725V2.67885H34.8368V2.14314ZM33.2296 1.60742H33.7653V2.14314H33.2296V1.60742ZM33.7653 1.60742H34.3011V2.14314H33.7653V1.60742ZM34.3011 1.60742H34.8368V2.14314H34.3011V1.60742ZM34.3011 1.07171H34.8368V1.60742H34.3011V1.07171ZM34.8368 1.07171H35.3725V1.60742H34.8368V1.07171ZM34.8368 1.60742H35.3725V2.14314H34.8368V1.60742ZM33.7653 1.07171H34.3011V1.60742H33.7653V1.07171ZM8.84905 13.0717H9.38477V13.6074H8.84905V13.0717ZM8.31334 13.0717H8.84905V13.6074H8.31334V13.0717ZM8.31334 12.536H8.84905V13.0717H8.31334V12.536ZM8.84905 12.536H9.38477V13.0717H8.84905V12.536ZM8.31334 12.0003H8.84905V12.536H8.31334V12.0003ZM7.77762 12.0003H8.31334V12.536H7.77762V12.0003ZM7.77762 12.536H8.31334V13.0717H7.77762V12.536ZM7.24191 12.536H7.77762V13.0717H7.24191V12.536ZM6.70619 12.536H7.24191V13.0717H6.70619V12.536ZM6.70619 12.0003H7.24191V12.536H6.70619V12.0003ZM6.17048 12.0003H6.70619V12.536H6.17048V12.0003ZM7.24191 12.0003H7.77762V12.536H7.24191V12.0003ZM6.17048 12.536H6.70619V13.0717H6.17048V12.536ZM5.63477 12.536H6.17048V13.0717H5.63477V12.536ZM5.63477 13.0717H6.17048V13.6074H5.63477V13.0717ZM6.17048 13.0717H6.70619V13.6074H6.17048V13.0717ZM6.17048 13.6074H6.70619V14.1431H6.17048V13.6074ZM6.17048 14.1431H6.70619V14.6789H6.17048V14.1431ZM5.63477 14.1431H6.17048V14.6789H5.63477V14.1431ZM5.63477 13.6074H6.17048V14.1431H5.63477V13.6074ZM6.17048 14.6789H6.70619V15.2146H6.17048V14.6789ZM6.70619 14.6789H7.24191V15.2146H6.70619V14.6789ZM6.70619 14.1431H7.24191V14.6789H6.70619V14.1431ZM7.24191 14.1431H7.77762V14.6789H7.24191V14.1431ZM7.77762 14.1431H8.31334V14.6789H7.77762V14.1431ZM8.31334 14.1431H8.84905V14.6789H8.31334V14.1431ZM8.31334 14.6789H8.84905V15.2146H8.31334V14.6789ZM7.77762 14.6789H8.31334V15.2146H7.77762V14.6789ZM7.24191 14.6789H7.77762V15.2146H7.24191V14.6789ZM8.84905 14.6789H9.38477V15.2146H8.84905V14.6789ZM8.84905 15.2146H9.38477V15.7503H8.84905V15.2146ZM8.31334 15.2146H8.84905V15.7503H8.31334V15.2146ZM7.77762 16.286H8.31334V16.8217H7.77762V16.286ZM8.31334 16.286H8.84905V16.8217H8.31334V16.286ZM8.31334 15.7503H8.84905V16.286H8.31334V15.7503ZM8.84905 15.7503H9.38477V16.286H8.84905V15.7503ZM8.84905 16.286H9.38477V16.8217H8.84905V16.286ZM8.31334 16.8217H8.84905V17.3574H8.31334V16.8217ZM7.77762 16.8217H8.31334V17.3574H7.77762V16.8217ZM7.24191 16.8217H7.77762V17.3574H7.24191V16.8217ZM6.70619 16.8217H7.24191V17.3574H6.70619V16.8217ZM6.17048 16.8217H6.70619V17.3574H6.17048V16.8217ZM6.17048 16.286H6.70619V16.8217H6.17048V16.286ZM6.70619 16.286H7.24191V16.8217H6.70619V16.286ZM7.24191 16.286H7.77762V16.8217H7.24191V16.286ZM5.63477 16.286H6.17048V16.8217H5.63477V16.286ZM5.63477 15.7503H6.17048V16.286H5.63477V15.7503ZM6.17048 15.7503H6.70619V16.286H6.17048V15.7503ZM9.92188 13.0717H10.4576V13.6074H9.92188V13.0717ZM10.4576 13.0717H10.9933V13.6074H10.4576V13.0717ZM10.4576 13.6074H10.9933V14.1431H10.4576V13.6074ZM10.4576 14.1431H10.9933V14.6789H10.4576V14.1431ZM10.4576 14.6789H10.9933V15.2146H10.4576V14.6789ZM9.92188 14.1431H10.4576V14.6789H9.92188V14.1431ZM9.92188 13.6074H10.4576V14.1431H9.92188V13.6074ZM9.92188 14.6789H10.4576V15.2146H9.92188V14.6789ZM9.92188 15.2146H10.4576V15.7503H9.92188V15.2146ZM10.4576 15.2146H10.9933V15.7503H10.4576V15.2146ZM10.4576 15.7503H10.9933V16.286H10.4576V15.7503ZM10.9933 15.7503H11.529V16.286H10.9933V15.7503ZM10.9933 16.286H11.529V16.8217H10.9933V16.286ZM11.529 16.286H12.0647V16.8217H11.529V16.286ZM12.0647 16.286H12.6004V16.8217H12.0647V16.286ZM12.0647 15.7503H12.6004V16.286H12.0647V15.7503ZM12.0647 15.2146H12.6004V15.7503H12.0647V15.2146ZM12.6004 15.2146H13.1362V15.7503H12.6004V15.2146ZM12.6004 15.7503H13.1362V16.286H12.6004V15.7503ZM12.6004 14.6789H13.1362V15.2146H12.6004V14.6789ZM12.0647 14.6789H12.6004V15.2146H12.0647V14.6789ZM12.0647 13.0717H12.6004V13.6074H12.0647V13.0717ZM12.6004 13.0717H13.1362V13.6074H12.6004V13.0717ZM12.6004 13.6074H13.1362V14.1431H12.6004V13.6074ZM12.6004 14.1431H13.1362V14.6789H12.6004V14.1431ZM12.0647 13.6074H12.6004V14.1431H12.0647V13.6074ZM12.0647 14.1431H12.6004V14.6789H12.0647V14.1431ZM11.529 16.8217H12.0647V17.3574H11.529V16.8217ZM10.9933 16.8217H11.529V17.3574H10.9933V16.8217ZM10.9933 17.3574H11.529V17.8931H10.9933V17.3574ZM10.4576 17.3574H10.9933V17.8931H10.4576V17.3574ZM10.4576 16.8217H10.9933V17.3574H10.4576V16.8217ZM10.4576 17.8931H10.9933V18.4289H10.4576V17.8931ZM9.92188 17.8931H10.4576V18.4289H9.92188V17.8931ZM9.92188 17.3574H10.4576V17.8931H9.92188V17.3574ZM11.529 15.7503H12.0647V16.286H11.529V15.7503ZM10.9933 15.2146H11.529V15.7503H10.9933V15.2146ZM13.6719 13.6074H14.2076V14.1431H13.6719V13.6074ZM14.2076 14.1431H14.7433V14.6789H14.2076V14.1431ZM13.6719 14.1431H14.2076V14.6789H13.6719V14.1431ZM13.6719 14.6789H14.2076V15.2146H13.6719V14.6789ZM14.2076 14.6789H14.7433V15.2146H14.2076V14.6789ZM14.2076 15.2146H14.7433V15.7503H14.2076V15.2146ZM14.7433 15.2146H15.279V15.7503H14.7433V15.2146ZM15.279 15.2146H15.8147V15.7503H15.279V15.2146ZM15.8147 14.6789H16.3504V15.2146H15.8147V14.6789ZM15.279 14.6789H15.8147V15.2146H15.279V14.6789ZM14.7433 14.6789H15.279V15.2146H14.7433V14.6789ZM15.8147 15.2146H16.3504V15.7503H15.8147V15.2146ZM16.3504 15.2146H16.8862V15.7503H16.3504V15.2146ZM16.3504 15.7503H16.8862V16.286H16.3504V15.7503ZM15.8147 15.7503H16.3504V16.286H15.8147V15.7503ZM15.8147 16.286H16.3504V16.8217H15.8147V16.286ZM16.3504 16.286H16.8862V16.8217H16.3504V16.286ZM15.8147 16.8217H16.3504V17.3574H15.8147V16.8217ZM15.279 16.286H15.8147V16.8217H15.279V16.286ZM14.7433 16.286H15.279V16.8217H14.7433V16.286ZM14.2076 16.286H14.7433V16.8217H14.2076V16.286ZM13.6719 16.286H14.2076V16.8217H13.6719V16.286ZM14.2076 16.8217H14.7433V17.3574H14.2076V16.8217ZM14.7433 16.8217H15.279V17.3574H14.7433V16.8217ZM15.279 16.8217H15.8147V17.3574H15.279V16.8217ZM16.3504 13.6074H16.8862V14.1431H16.3504V13.6074ZM15.8147 13.6074H16.3504V14.1431H15.8147V13.6074ZM15.8147 13.0717H16.3504V13.6074H15.8147V13.0717ZM15.279 13.0717H15.8147V13.6074H15.279V13.0717ZM14.7433 13.0717H15.279V13.6074H14.7433V13.0717ZM14.2076 13.0717H14.7433V13.6074H14.2076V13.0717ZM14.2076 13.6074H14.7433V14.1431H14.2076V13.6074ZM14.7433 13.6074H15.279V14.1431H14.7433V13.6074ZM15.279 13.6074H15.8147V14.1431H15.279V13.6074ZM19.5647 16.286H20.1004V16.8217H19.5647V16.286ZM19.5647 16.8217H20.1004V17.3574H19.5647V16.8217ZM19.029 16.8217H19.5647V17.3574H19.029V16.8217ZM19.029 16.286H19.5647V16.8217H19.029V16.286ZM18.4933 16.8217H19.029V17.3574H18.4933V16.8217ZM18.4933 16.286H19.029V16.8217H18.4933V16.286ZM17.9576 16.286H18.4933V16.8217H17.9576V16.286ZM17.9576 15.7503H18.4933V16.286H17.9576V15.7503ZM17.9576 15.2146H18.4933V15.7503H17.9576V15.2146ZM17.9576 14.6789H18.4933V15.2146H17.9576V14.6789ZM17.9576 14.1431H18.4933V14.6789H17.9576V14.1431ZM17.9576 13.6074H18.4933V14.1431H17.9576V13.6074ZM18.4933 15.2146H19.029V15.7503H18.4933V15.2146ZM18.4933 15.7503H19.029V16.286H18.4933V15.7503ZM18.4933 14.6789H19.029V15.2146H18.4933V14.6789ZM18.4933 14.1431H19.029V14.6789H18.4933V14.1431ZM18.4933 12.0003H19.029V12.536H18.4933V12.0003ZM18.4933 12.536H19.029V13.0717H18.4933V12.536ZM18.4933 13.0717H19.029V13.6074H18.4933V13.0717ZM18.4933 13.6074H19.029V14.1431H18.4933V13.6074ZM17.9576 13.0717H18.4933V13.6074H17.9576V13.0717ZM17.4219 13.6074H17.9576V14.1431H17.4219V13.6074ZM19.029 13.6074H19.5647V14.1431H19.029V13.6074ZM19.5647 13.6074H20.1004V14.1431H19.5647V13.6074ZM17.9576 12.536H18.4933V13.0717H17.9576V12.536ZM17.4219 14.1431H17.9576V14.6789H17.4219V14.1431ZM19.029 14.1431H19.5647V14.6789H19.029V14.1431ZM19.5647 14.1431H20.1004V14.6789H19.5647V14.1431ZM21.7062 13.0717H22.2419V13.6074H21.7062V13.0717ZM21.1705 13.0717H21.7062V13.6074H21.1705V13.0717ZM21.1705 13.6074H21.7062V14.1431H21.1705V13.6074ZM21.7062 13.6074H22.2419V14.1431H21.7062V13.6074ZM22.2419 13.0717H22.7776V13.6074H22.2419V13.0717ZM22.7776 13.0717H23.3133V13.6074H22.7776V13.0717ZM23.3133 13.0717H23.8491V13.6074H23.3133V13.0717ZM23.3133 13.6074H23.8491V14.1431H23.3133V13.6074ZM22.7776 13.6074H23.3133V14.1431H22.7776V13.6074ZM23.8491 13.6074H24.3848V14.1431H23.8491V13.6074ZM23.8491 14.1431H24.3848V14.6789H23.8491V14.1431ZM23.8491 16.286H24.3848V16.8217H23.8491V16.286ZM23.3133 16.286H23.8491V16.8217H23.3133V16.286ZM23.3133 14.1431H23.8491V14.6789H23.3133V14.1431ZM22.7776 16.286H23.3133V16.8217H22.7776V16.286ZM23.3133 16.8217H23.8491V17.3574H23.3133V16.8217ZM22.7776 16.8217H23.3133V17.3574H22.7776V16.8217ZM22.2419 16.8217H22.7776V17.3574H22.2419V16.8217ZM21.7062 16.8217H22.2419V17.3574H21.7062V16.8217ZM21.1705 16.8217H21.7062V17.3574H21.1705V16.8217ZM21.1705 16.286H21.7062V16.8217H21.1705V16.286ZM21.7062 16.286H22.2419V16.8217H21.7062V16.286ZM21.1705 15.7503H21.7062V16.286H21.1705V15.7503ZM20.6348 16.286H21.1705V16.8217H20.6348V16.286ZM20.6348 15.7503H21.1705V16.286H20.6348V15.7503ZM20.6348 15.2146H21.1705V15.7503H20.6348V15.2146ZM20.6348 14.6789H21.1705V15.2146H20.6348V14.6789ZM20.6348 14.1431H21.1705V14.6789H20.6348V14.1431ZM20.6348 13.6074H21.1705V14.1431H20.6348V13.6074ZM21.1705 14.1431H21.7062V14.6789H21.1705V14.1431ZM21.1705 14.6789H21.7062V15.2146H21.1705V14.6789ZM21.1705 15.2146H21.7062V15.7503H21.1705V15.2146ZM22.2419 16.286H22.7776V16.8217H22.2419V16.286ZM22.2419 13.6074H22.7776V14.1431H22.2419V13.6074ZM23.3133 14.6789H23.8491V15.2146H23.3133V14.6789ZM23.8491 14.6789H24.3848V15.2146H23.8491V14.6789ZM21.7062 15.2146H22.2419V15.7503H21.7062V15.2146ZM22.2419 15.2146H22.7776V15.7503H22.2419V15.2146ZM22.7776 15.2146H23.3133V15.7503H22.7776V15.2146ZM23.3133 15.2146H23.8491V15.7503H23.3133V15.2146ZM23.8491 15.2146H24.3848V15.7503H23.8491V15.2146ZM22.7776 14.6789H23.3133V15.2146H22.7776V14.6789ZM22.2419 14.6789H22.7776V15.2146H22.2419V14.6789ZM21.7062 14.6789H22.2419V15.2146H21.7062V14.6789ZM24.9219 13.6074H25.4576V14.1431H24.9219V13.6074ZM24.9219 13.0717H25.4576V13.6074H24.9219V13.0717ZM25.4576 13.0717H25.9933V13.6074H25.4576V13.0717ZM25.4576 13.6074H25.9933V14.1431H25.4576V13.6074ZM25.4576 14.1431H25.9933V14.6789H25.4576V14.1431ZM25.4576 14.6789H25.9933V15.2146H25.4576V14.6789ZM25.4576 15.2146H25.9933V15.7503H25.4576V15.2146ZM24.9219 15.2146H25.4576V15.7503H24.9219V15.2146ZM24.9219 14.6789H25.4576V15.2146H24.9219V14.6789ZM24.9219 14.1431H25.4576V14.6789H24.9219V14.1431ZM24.9219 15.7503H25.4576V16.286H24.9219V15.7503ZM25.4576 15.7503H25.9933V16.286H25.4576V15.7503ZM25.4576 16.286H25.9933V16.8217H25.4576V16.286ZM25.4576 16.8217H25.9933V17.3574H25.4576V16.8217ZM24.9219 16.8217H25.4576V17.3574H24.9219V16.8217ZM24.9219 16.286H25.4576V16.8217H24.9219V16.286ZM27.0647 16.8217H27.6004V17.3574H27.0647V16.8217ZM27.6004 16.8217H28.1362V17.3574H27.6004V16.8217ZM27.6004 16.286H28.1362V16.8217H27.6004V16.286ZM27.6004 15.7503H28.1362V16.286H27.6004V15.7503ZM27.6004 15.2146H28.1362V15.7503H27.6004V15.2146ZM27.6004 14.6789H28.1362V15.2146H27.6004V14.6789ZM27.6004 14.1431H28.1362V14.6789H27.6004V14.1431ZM27.6004 13.6074H28.1362V14.1431H27.6004V13.6074ZM27.0647 14.6789H27.6004V15.2146H27.0647V14.6789ZM27.0647 15.2146H27.6004V15.7503H27.0647V15.2146ZM27.0647 15.7503H27.6004V16.286H27.0647V15.7503ZM27.0647 16.286H27.6004V16.8217H27.0647V16.286ZM27.0647 14.1431H27.6004V14.6789H27.0647V14.1431ZM25.9933 13.6074H26.529V14.1431H25.9933V13.6074ZM26.529 13.6074H27.0647V14.1431H26.529V13.6074ZM27.0647 13.0717H27.6004V13.6074H27.0647V13.0717ZM27.0647 13.6074H27.6004V14.1431H27.0647V13.6074ZM26.529 13.0717H27.0647V13.6074H26.529V13.0717ZM29.2076 16.8217H29.7433V17.3574H29.2076V16.8217ZM29.7433 16.8217H30.279V17.3574H29.7433V16.8217ZM29.7433 16.286H30.279V16.8217H29.7433V16.286ZM29.7433 15.7503H30.279V16.286H29.7433V15.7503ZM29.7433 15.2146H30.279V15.7503H29.7433V15.2146ZM29.7433 14.6789H30.279V15.2146H29.7433V14.6789ZM29.7433 14.1431H30.279V14.6789H29.7433V14.1431ZM29.7433 13.6074H30.279V14.1431H29.7433V13.6074ZM29.2076 14.6789H29.7433V15.2146H29.2076V14.6789ZM29.2076 15.2146H29.7433V15.7503H29.2076V15.2146ZM29.2076 15.7503H29.7433V16.286H29.2076V15.7503ZM29.2076 16.286H29.7433V16.8217H29.2076V16.286ZM29.2076 14.1431H29.7433V14.6789H29.2076V14.1431ZM28.1362 13.6074H28.6719V14.1431H28.1362V13.6074ZM28.6719 13.6074H29.2076V14.1431H28.6719V13.6074ZM29.2076 13.0717H29.7433V13.6074H29.2076V13.0717ZM29.2076 13.6074H29.7433V14.1431H29.2076V13.6074ZM28.6719 13.0717H29.2076V13.6074H28.6719V13.0717Z" fill="white"/>
</svg>
