<svg width="16" height="16" viewBox="0 0 16 16" fill="none" xmlns="http://www.w3.org/2000/svg">
<path d="M7.24711 1.24657C7.56476 0.79619 7.90889 0.683594 8.04123 0.683594C8.37654 0.683594 8.59271 0.89377 8.65889 0.99886C8.87068 1.30512 9.23245 2.04224 9.38686 2.37251C9.65893 2.92798 10.2384 4.12899 10.3795 4.48929C10.5648 4.96219 10.7322 4.94056 10.9972 4.96219C13.7546 5.18736 14.4826 5.36753 14.8134 5.54769C15.1443 5.72783 15.4311 6.24576 15.0561 6.85376C14.7561 7.34019 13.5634 8.48263 13.0046 8.99306C12.8722 9.11316 12.5546 9.40743 12.3428 9.62359C12.131 9.83979 12.1369 10.119 12.1663 10.2316C12.3869 11.4476 12.5634 13.1591 12.5855 13.8572C12.6075 14.5552 12.1222 14.848 11.7472 14.7804C11.4472 14.7264 10.6075 14.2925 10.2251 14.0823L8.7692 13.2491C8.57801 13.1366 8.16916 12.9114 8.0633 12.9114C7.95741 12.9114 7.71036 13.0315 7.60005 13.0915C6.82797 13.5194 5.19117 14.4201 4.82056 14.6003C4.35734 14.8255 3.40877 14.7579 3.47496 13.6094C3.52789 12.6907 3.77644 11.8004 3.89409 11.4702C3.96763 11.2074 4.34849 10.5424 5.28381 9.98389C6.21912 9.42543 7.68828 8.71533 8.30595 8.43009C8.44567 8.34753 8.71627 8.16886 8.68097 8.11483C8.64567 8.06079 8.34271 8.09233 8.19565 8.11483C7.21034 8.27996 5.02353 8.63276 4.15878 8.72283C3.29406 8.81293 2.3867 8.23493 2.0411 7.93469C1.63668 7.61943 0.832246 6.85829 0.849895 6.33583C0.867541 5.81339 1.2102 5.56269 1.37932 5.50263C2.50434 5.09729 5.19558 5.05226 5.43822 4.82706C5.63235 4.64693 5.76913 4.36169 5.81325 4.24159C6.15884 3.43089 6.92946 1.69695 7.24711 1.24657Z" fill="url(#paint0_linear_4062_1498)"/>
<path d="M4.88642 4.96628C6.6778 4.81685 9.25867 4.86802 10.4013 4.91662L11.1419 4.97365C13.7803 5.19332 14.4884 5.37018 14.8134 5.54715C15.1443 5.72728 15.4311 6.24525 15.0561 6.85325C14.7561 7.33965 13.5634 8.48212 13.0046 8.99255C12.8722 9.11265 12.5546 9.40688 12.3428 9.62309C12.3279 9.63832 12.3141 9.65395 12.3012 9.66972C10.6476 11.13 8.9498 12.2995 8.21746 12.7532L7.73409 13.023C7.68175 13.0479 7.63431 13.0723 7.60005 13.091C6.82797 13.5189 5.19117 14.4196 4.82056 14.5998C4.35731 14.8249 3.40877 14.7574 3.47496 13.6089C3.52789 12.6902 3.77644 11.7999 3.89409 11.4696C3.96763 11.2069 4.34853 10.5418 5.28381 9.98338C6.21912 9.42492 7.68828 8.71482 8.30595 8.42955C8.44567 8.34698 8.71627 8.16835 8.68097 8.11432C8.64564 8.06028 8.34271 8.09178 8.19565 8.11432C7.21034 8.27945 5.02353 8.63225 4.15878 8.72232C3.29406 8.81238 2.38669 8.23442 2.0411 7.93415C1.63667 7.61888 0.832246 6.85775 0.849895 6.33532C0.867547 5.81288 1.2102 5.56215 1.37932 5.50212C2.23134 5.19512 3.9817 5.09472 4.88642 4.96628Z" fill="url(#paint1_linear_4062_1498)"/>
<defs>
<linearGradient id="paint0_linear_4062_1498" x1="8.04149" y1="0.683594" x2="8.04149" y2="14.7899" gradientUnits="userSpaceOnUse">
<stop stop-color="#FEB92D"/>
<stop offset="1" stop-color="#FFAC12"/>
</linearGradient>
<linearGradient id="paint1_linear_4062_1498" x1="10.5999" y1="4.87158" x2="3.37275" y2="14.5478" gradientUnits="userSpaceOnUse">
<stop stop-color="#FDD133"/>
<stop offset="1" stop-color="#FFE933"/>
</linearGradient>
</defs>
</svg>
