<svg width="16" height="16" viewBox="0 0 16 16" fill="none" xmlns="http://www.w3.org/2000/svg">
<g clip-path="url(#clip0_4062_1501)">
<path d="M8.00049 15.333C12.0507 15.333 15.334 12.0497 15.334 7.99952C15.334 3.94934 12.0507 0.666016 8.00049 0.666016C3.95031 0.666016 0.666992 3.94934 0.666992 7.99952C0.666992 12.0497 3.95031 15.333 8.00049 15.333Z" fill="#0088CC"/>
<path fill-rule="evenodd" clip-rule="evenodd" d="M5.48993 4.66602H10.5179C10.7099 4.66602 10.8699 4.69802 11.0624 4.79452C11.2864 4.89052 11.4144 5.05052 11.4784 5.17852C11.4784 5.17852 11.4784 5.21052 11.5104 5.21052C11.6064 5.37052 11.6704 5.56302 11.6704 5.78702C11.6704 5.97902 11.6384 6.17152 11.5104 6.36352L8.34043 11.8075C8.27643 11.9355 8.14793 11.9995 7.98793 11.9995C7.85993 11.9995 7.73193 11.9355 7.63593 11.8075L4.52943 6.36352C4.46543 6.23552 4.33743 6.07502 4.33743 5.81902C4.30543 5.59502 4.36943 5.40252 4.46543 5.21052C4.56143 5.01852 4.72143 4.85852 4.94543 4.79452C5.13793 4.66602 5.36193 4.66602 5.49043 4.66602H5.48993ZM7.60393 5.43452H5.48993C5.36193 5.43452 5.29793 5.43452 5.26593 5.46702C5.20877 5.4922 5.1631 5.53786 5.13793 5.59502C5.10593 5.62702 5.10593 5.69102 5.10593 5.75502C5.10593 5.78702 5.13793 5.81902 5.20193 5.94702L7.60393 10.11V5.43502V5.43452ZM8.37243 5.43452V10.142L10.8059 5.94702C10.8379 5.88302 10.8379 5.81902 10.8379 5.75502C10.8379 5.69102 10.8379 5.62702 10.8059 5.59502C10.7739 5.56302 10.7739 5.53102 10.7419 5.53102L10.7099 5.49852C10.6459 5.46702 10.5819 5.46702 10.4859 5.46702H8.37243V5.43452Z" fill="white"/>
</g>
<defs>
<clipPath id="clip0_4062_1501">
<rect width="16" height="16" fill="white"/>
</clipPath>
</defs>
</svg>
