<svg width="16" height="15" viewBox="0 0 16 15" fill="none" xmlns="http://www.w3.org/2000/svg">
<path d="M4.74454 9.08596L4.71414 9.05956L9.92054 4.71556L2.99254 7.50676L0.195742 4.98356C0.116469 4.9118 0.0579934 4.82 0.0264628 4.71782C-0.00506772 4.61564 -0.00848873 4.50686 0.0165594 4.4029C0.0416075 4.29894 0.0941996 4.20365 0.168807 4.12704C0.243415 4.05044 0.337282 3.99535 0.440542 3.96756L15.2501 0.0195624C15.3517 -0.00710668 15.4585 -0.00649762 15.5598 0.0213281C15.6611 0.0491539 15.7532 0.103211 15.8269 0.178039C15.9006 0.252868 15.9532 0.345818 15.9795 0.447502C16.0058 0.549185 16.0048 0.656002 15.9765 0.757162L12.0309 14.5012C12.0031 14.5985 11.951 14.6872 11.8794 14.7588C11.8078 14.8304 11.7192 14.8826 11.6218 14.9105C11.5245 14.9383 11.4217 14.9409 11.323 14.918C11.2244 14.8951 11.1332 14.8475 11.0581 14.7796L7.22774 11.3236L4.74454 13.8036V9.08516V9.08596Z" fill="#05DE71"/>
</svg>
