<svg width="10" height="10" viewBox="0 0 10 10" fill="none" xmlns="http://www.w3.org/2000/svg">
<g clip-path="url(#clip0_4423_17)">
<path d="M6.16242 5L9.19272 1.9697C9.43576 1.72666 9.43576 1.32978 9.19272 1.08674L8.91326 0.807282C8.67022 0.564239 8.27334 0.564239 8.0303 0.807282L5 3.83758L1.9697 0.807282C1.72666 0.564239 1.32978 0.564239 1.08674 0.807282L0.807282 1.08674C0.564239 1.32978 0.564239 1.72666 0.807282 1.9697L3.83758 5L0.807282 8.0303C0.564239 8.27334 0.564239 8.67022 0.807282 8.91326L1.08674 9.19272C1.32978 9.43576 1.72666 9.43576 1.9697 9.19272L5 6.16242L8.0303 9.19272C8.27334 9.43576 8.67022 9.43576 8.91326 9.19272L9.19272 8.91326C9.43576 8.67022 9.43576 8.27334 9.19272 8.0303L6.16242 5Z" fill="#E4E4E4"/>
</g>
<defs>
<clipPath id="clip0_4423_17">
<rect width="10" height="10" fill="white"/>
</clipPath>
</defs>
</svg>
